<?xml version="1.0" encoding="iso-8859-1"?>
<!-- Generator: Adobe Illustrator 19.2.1, SVG Export Plug-In . SVG Version: 6.00 Build 0)  -->
<svg version="1.1" id="Layer_1" xmlns="http://www.w3.org/2000/svg" xmlns:xlink="http://www.w3.org/1999/xlink" x="0px" y="0px"
	 viewBox="0 0 1024 290.588" style="enable-background:new 0 0 1024 290.588;" xml:space="preserve">
<g>
	<defs>
		<path id="SVGID_1_" d="M289.521,121.484c-0.207,0.038-0.412,0.089-0.613,0.154c-2.283,0.514-3.888,2.577-3.831,4.927v29.564
			c-0.025,1.777,0.904,3.43,2.432,4.326c1.528,0.896,3.417,0.896,4.945,0c1.528-0.896,2.457-2.549,2.432-4.326v-29.564
			c0.05-1.417-0.51-2.788-1.537-3.761C292.321,121.831,290.926,121.35,289.521,121.484z M171.825,121.484
			c-0.207,0.038-0.412,0.089-0.613,0.154c-2.283,0.514-3.888,2.577-3.831,4.927v29.564c-0.025,1.777,0.904,3.43,2.432,4.326
			c1.528,0.896,3.417,0.896,4.944,0c1.528-0.896,2.457-2.549,2.432-4.326v-29.564c0.05-1.417-0.51-2.788-1.537-3.761
			C174.625,121.831,173.231,121.35,171.825,121.484z M54.129,121.484c-0.207,0.038-0.412,0.089-0.613,0.154
			c-2.283,0.514-3.888,2.577-3.831,4.927v29.564c-0.025,1.777,0.904,3.43,2.432,4.326c1.528,0.896,3.417,0.896,4.944,0
			c1.528-0.896,2.457-2.549,2.432-4.326v-29.564c0.05-1.417-0.51-2.788-1.537-3.761C56.929,121.831,55.535,121.35,54.129,121.484z
			 M201.249,96.847c-0.207,0.038-0.412,0.089-0.613,0.154c-2.283,0.514-3.888,2.577-3.831,4.927v78.837
			c-0.025,1.777,0.904,3.43,2.432,4.326c1.528,0.896,3.417,0.896,4.944,0c1.528-0.896,2.457-2.549,2.432-4.326v-78.837
			c0.05-1.417-0.51-2.788-1.537-3.761C204.049,97.195,202.654,96.713,201.249,96.847z M142.401,96.847
			c-0.207,0.038-0.412,0.089-0.613,0.154c-2.283,0.514-3.888,2.577-3.831,4.927v78.837c-0.025,1.777,0.904,3.43,2.432,4.326
			c1.528,0.896,3.417,0.896,4.944,0c1.528-0.896,2.457-2.549,2.432-4.326v-78.837c0.05-1.417-0.51-2.788-1.537-3.761
			C145.201,97.195,143.807,96.713,142.401,96.847z M260.097,91.92c-0.207,0.038-0.412,0.089-0.613,0.154
			c-2.283,0.514-3.888,2.577-3.831,4.927v88.692c-0.025,1.777,0.904,3.43,2.432,4.326c1.528,0.896,3.417,0.896,4.944,0
			c1.528-0.896,2.457-2.549,2.432-4.326V97.001c0.05-1.417-0.51-2.788-1.537-3.761C262.897,92.267,261.502,91.786,260.097,91.92z
			 M83.553,91.92c-0.207,0.038-0.412,0.089-0.613,0.154c-2.283,0.514-3.888,2.577-3.831,4.927v88.692
			c-0.025,1.777,0.904,3.43,2.432,4.326c1.528,0.896,3.417,0.896,4.944,0c1.528-0.896,2.457-2.549,2.432-4.326V97.001
			c0.05-1.417-0.51-2.788-1.537-3.761C86.353,92.267,84.959,91.786,83.553,91.92z M230.673,47.574
			c-0.207,0.038-0.412,0.089-0.613,0.154c-2.283,0.514-3.888,2.577-3.831,4.927v177.384c-0.025,1.777,0.904,3.43,2.432,4.326
			c1.528,0.896,3.417,0.896,4.944,0c1.528-0.896,2.457-2.549,2.432-4.326V52.655c0.05-1.417-0.51-2.788-1.537-3.761
			C233.473,47.921,232.078,47.44,230.673,47.574z M112.977,47.574c-0.207,0.038-0.412,0.089-0.613,0.154
			c-2.283,0.514-3.888,2.577-3.831,4.927v177.384c-0.025,1.777,0.904,3.43,2.432,4.326c1.528,0.896,3.417,0.896,4.944,0
			c1.528-0.896,2.457-2.549,2.432-4.326V52.655c0.05-1.417-0.51-2.788-1.537-3.761C115.777,47.921,114.383,47.44,112.977,47.574z"/>
	</defs>
	<clipPath id="SVGID_2_">
		<use xlink:href="#SVGID_1_"  style="overflow:visible;"/>
	</clipPath>
	<g style="clip-path:url(#SVGID_2_);">
		<defs>
			<rect id="SVGID_3_" x="-1057.475" y="-1039.542" width="3203.254" height="2277.87"/>
		</defs>
		<clipPath id="SVGID_4_">
			<use xlink:href="#SVGID_3_"  style="overflow:visible;"/>
		</clipPath>
		<rect x="38.561" y="36.429" style="clip-path:url(#SVGID_4_);fill:#FFFFFF;" width="267.449" height="209.729"/>
	</g>
</g>
<g>
	<path style="fill:#FFFFFF;" d="M357.615,150.593v-1.503v-1.503V84.161c0-1.954,1.653-3.607,3.607-3.607
		c2.104,0,3.757,1.653,3.757,3.607v42.384c6.463-8.717,16.684-14.429,28.256-14.429c19.839,0,35.621,16.533,35.621,36.974
		c0,20.14-15.782,36.673-35.621,36.673c-11.573,0-21.793-5.562-28.256-14.278v10.671c0,1.954-1.653,3.607-3.757,3.607
		c-1.954,0-3.607-1.653-3.607-3.607V150.593z M364.979,149.09c0,16.232,12.775,29.309,28.256,29.309
		c15.631,0,28.256-13.076,28.256-29.309c0-16.383-12.625-29.609-28.256-29.609c-15.18,0-27.655,12.625-28.256,28.407V149.09z"/>
	<path style="fill:#FFFFFF;" d="M453.653,166.073c1.203-1.503,3.307-1.653,4.66-0.45c7.815,6.312,20.892,13.677,34.569,13.526
		c9.168,0,17.435-2.705,23.146-6.914c5.862-4.208,9.019-9.769,9.019-15.631c0-6.012-2.855-10.521-8.567-14.429
		c-5.711-3.757-14.128-6.613-24.349-8.567h-0.301c-9.769-1.804-18.336-4.509-24.799-8.868c-6.463-4.208-10.822-10.521-10.822-18.336
		c0-7.966,4.359-14.879,10.972-19.689c6.613-4.81,15.48-7.666,25.4-7.666c13.827,0,24.198,6.764,32.465,12.174
		c1.503,1.052,1.953,3.006,0.901,4.659c-0.901,1.503-3.006,1.954-4.509,0.902c-8.267-5.411-17.284-11.122-28.857-11.122
		c-8.567,0-16.232,2.555-21.493,6.312c-5.261,3.908-8.267,9.018-8.267,14.429c0.15,5.26,2.555,9.168,7.815,12.775
		c5.261,3.607,13.076,6.162,22.545,7.966h0.3c10.521,1.954,19.84,4.96,26.754,9.619c6.913,4.509,11.573,11.422,11.573,19.839
		s-4.811,15.932-11.874,21.042c-7.064,5.11-16.533,8.267-27.054,8.267c-16.082-0.15-30.06-8.267-38.777-15.181
		C452.752,169.53,452.602,167.426,453.653,166.073z"/>
	<path style="fill:#FFFFFF;" d="M582.008,115.723c0,1.804-1.804,3.607-3.606,3.607h-9.47v53.657c0,3.607,3.607,5.411,5.411,5.411
		s3.758,1.953,3.758,3.757s-1.954,3.607-3.758,3.607c-7.364,0-12.926-5.411-12.926-12.775v-53.657h-9.168
		c-3.607,0-3.607-1.804-3.607-3.607c0-1.803,0-3.607,3.607-3.607h9.168V84.762c0-1.804,1.804-3.607,3.607-3.607
		c1.954,0,3.907,1.804,3.907,3.607v27.354h9.47C580.204,112.116,582.008,113.92,582.008,115.723z"/>
	<path style="fill:#FFFFFF;" d="M605.905,115.874c0-2.104,1.653-3.607,3.758-3.607c1.804,0,3.457,1.503,3.457,3.607v16.232
		c0.301-0.601,0.601-1.203,1.052-1.804c5.562-8.717,15.331-18.036,29.459-18.036c1.954,0,3.606,1.503,3.606,3.607
		c0,1.954-1.652,3.607-3.606,3.607c-9.619,0-16.232,5.411-21.343,12.024c-4.96,6.613-7.815,14.128-8.867,17.134
		c-0.301,0.602-0.301,0.902-0.301,1.202v32.314c0,2.104-1.653,3.607-3.457,3.607c-2.104,0-3.758-1.503-3.758-3.607V115.874z"/>
	<path style="fill:#FFFFFF;" d="M659.112,149.09c0-20.441,15.932-36.974,35.771-36.974c18.938,0,33.968,15.03,35.471,34.269v0.149
		v0.451c0,1.954-1.653,3.307-3.607,3.307h-60.42c0.752,16.082,13.377,28.256,28.557,28.256c9.77,0,18.788-5.109,23.747-13.376
		c1.053-1.804,3.307-2.104,4.81-1.202c1.653,1.202,2.255,3.307,1.203,5.109c-6.312,10.07-17.285,16.684-29.76,16.684
		C675.044,185.763,659.112,169.229,659.112,149.09z M666.777,143.229h55.761c-2.404-13.828-14.128-23.898-27.655-23.898
		C681.056,119.331,669.482,129.25,666.777,143.229z"/>
	<path style="fill:#FFFFFF;" d="M817.676,115.723v66.432c0,1.954-1.653,3.607-3.607,3.607s-3.607-1.653-3.607-3.607v-10.972
		c-6.312,8.718-16.383,14.579-27.655,14.579c-19.388,0-34.869-16.684-34.869-36.823c0-20.14,15.481-36.823,34.869-36.823
		c11.272,0,21.343,5.711,27.655,14.429v-10.822c0-2.104,1.653-3.607,3.607-3.607S817.676,113.619,817.676,115.723z M810.461,148.939
		c0-16.533-12.475-29.759-27.655-29.759c-15.029,0-27.654,13.227-27.654,29.759c0,16.533,12.625,29.608,27.654,29.608
		C797.986,178.548,810.461,165.473,810.461,148.939z"/>
	<path style="fill:#FFFFFF;" d="M954.295,142.176c-0.301-12.475-10.221-22.845-22.846-22.845c-12.475,0-22.695,10.371-22.695,22.845
		v40.13v0.451c0,0.15-0.15,0.301-0.15,0.301v0.301c-0.301,0.901-1.052,1.503-1.804,1.953c-0.601,0.301-1.202,0.451-1.804,0.451
		h-0.45h-0.301c-0.15,0-0.301-0.15-0.301-0.15c-0.301,0-0.602-0.301-0.901-0.451c-0.15,0-0.301-0.15-0.451-0.3l-0.451-0.451
		c-0.15-0.15-0.15-0.301-0.301-0.301c0-0.15,0-0.15-0.15-0.301c0,0,0-0.15-0.15-0.301c0-0.149,0-0.3-0.149-0.45v-0.451v-0.301
		v-40.13c0-12.475-10.07-22.845-22.695-22.845s-22.695,10.371-22.695,22.845v40.13c0,1.202-0.602,2.255-1.653,2.855
		c-0.15,0.15-0.602,0.451-0.902,0.451c-0.149,0.15-0.3,0.15-0.601,0.15h-0.451h-0.451c-1.353-0.15-2.555-1.353-3.006-2.705v-0.752
		v-40.13v-1.202v-25.25c0-1.954,1.653-3.457,3.457-3.457c2.104,0,3.607,1.503,3.607,3.457v7.064
		c5.41-6.463,13.526-10.521,22.695-10.521c11.423,0,21.191,6.312,26.302,15.631c5.261-9.318,15.181-15.631,26.453-15.631
		c16.532,0,29.909,13.376,29.909,29.909v40.13c0,1.804-1.503,3.457-3.607,3.457c-1.953,0-3.456-1.653-3.456-3.457V142.176z"/>
</g>
</svg>
